<mxfile host="app.diagrams.net" modified="2020-10-14T23:08:34.098Z" agent="5.0 (Windows NT 10.0; Win64; x64) AppleWebKit/537.36 (KHTML, like Gecko) Chrome/86.0.4240.75 Safari/537.36" etag="bmn0UzYDk1c2buATG0LJ" version="13.8.0" type="github">
  <diagram id="tkx1Y4fqirmk6XLV6gT4" name="Page-1">
    <mxGraphModel dx="1422" dy="762" grid="1" gridSize="10" guides="1" tooltips="1" connect="1" arrows="1" fold="1" page="1" pageScale="1" pageWidth="850" pageHeight="1100" math="0" shadow="0">
      <root>
        <mxCell id="0" />
        <mxCell id="1" parent="0" />
        <mxCell id="k7GavC4-su5i6TdgeZaQ-1" value="" style="rounded=0;whiteSpace=wrap;html=1;" vertex="1" parent="1">
          <mxGeometry x="50" y="110" width="800" height="710" as="geometry" />
        </mxCell>
        <mxCell id="k7GavC4-su5i6TdgeZaQ-2" value="Stack" style="rounded=0;whiteSpace=wrap;html=1;" vertex="1" parent="1">
          <mxGeometry x="90" y="150" width="350" height="490" as="geometry" />
        </mxCell>
        <mxCell id="k7GavC4-su5i6TdgeZaQ-3" value="" style="rounded=0;whiteSpace=wrap;html=1;" vertex="1" parent="1">
          <mxGeometry x="110" y="560" width="260" height="60" as="geometry" />
        </mxCell>
        <mxCell id="k7GavC4-su5i6TdgeZaQ-4" value="" style="rounded=0;whiteSpace=wrap;html=1;" vertex="1" parent="1">
          <mxGeometry x="110" y="400" width="260" height="60" as="geometry" />
        </mxCell>
        <mxCell id="k7GavC4-su5i6TdgeZaQ-5" value="" style="rounded=0;whiteSpace=wrap;html=1;" vertex="1" parent="1">
          <mxGeometry x="110" y="470" width="260" height="60" as="geometry" />
        </mxCell>
        <mxCell id="k7GavC4-su5i6TdgeZaQ-6" value="" style="rounded=0;whiteSpace=wrap;html=1;" vertex="1" parent="1">
          <mxGeometry x="120" y="230" width="260" height="60" as="geometry" />
        </mxCell>
        <mxCell id="k7GavC4-su5i6TdgeZaQ-7" value="" style="rounded=0;whiteSpace=wrap;html=1;" vertex="1" parent="1">
          <mxGeometry x="120" y="310" width="260" height="60" as="geometry" />
        </mxCell>
        <mxCell id="k7GavC4-su5i6TdgeZaQ-9" value="" style="rounded=0;whiteSpace=wrap;html=1;" vertex="1" parent="1">
          <mxGeometry x="680" y="420" width="120" height="60" as="geometry" />
        </mxCell>
        <mxCell id="k7GavC4-su5i6TdgeZaQ-10" value="" style="rounded=1;whiteSpace=wrap;html=1;" vertex="1" parent="1">
          <mxGeometry x="650" y="360" width="120" height="60" as="geometry" />
        </mxCell>
        <mxCell id="k7GavC4-su5i6TdgeZaQ-11" value="Heap (Obj)" style="rounded=1;whiteSpace=wrap;html=1;" vertex="1" parent="1">
          <mxGeometry x="600" y="340" width="250" height="220" as="geometry" />
        </mxCell>
        <mxCell id="k7GavC4-su5i6TdgeZaQ-12" value="" style="endArrow=classic;html=1;" edge="1" parent="1" source="k7GavC4-su5i6TdgeZaQ-4" target="k7GavC4-su5i6TdgeZaQ-11">
          <mxGeometry width="50" height="50" relative="1" as="geometry">
            <mxPoint x="400" y="420" as="sourcePoint" />
            <mxPoint x="450" y="370" as="targetPoint" />
          </mxGeometry>
        </mxCell>
        <mxCell id="k7GavC4-su5i6TdgeZaQ-13" value="" style="endArrow=classic;html=1;exitX=1;exitY=0.75;exitDx=0;exitDy=0;entryX=-0.008;entryY=0.45;entryDx=0;entryDy=0;entryPerimeter=0;" edge="1" parent="1" source="k7GavC4-su5i6TdgeZaQ-7" target="k7GavC4-su5i6TdgeZaQ-11">
          <mxGeometry width="50" height="50" relative="1" as="geometry">
            <mxPoint x="380" y="445.36082474226805" as="sourcePoint" />
            <mxPoint x="610" y="454.84536082474233" as="targetPoint" />
            <Array as="points">
              <mxPoint x="510" y="390" />
            </Array>
          </mxGeometry>
        </mxCell>
        <mxCell id="k7GavC4-su5i6TdgeZaQ-14" value="" style="endArrow=classic;html=1;" edge="1" parent="1" target="k7GavC4-su5i6TdgeZaQ-11">
          <mxGeometry width="50" height="50" relative="1" as="geometry">
            <mxPoint x="380" y="270.00082474226804" as="sourcePoint" />
            <mxPoint x="610" y="279.4853608247423" as="targetPoint" />
          </mxGeometry>
        </mxCell>
        <mxCell id="k7GavC4-su5i6TdgeZaQ-15" value="" style="endArrow=classic;html=1;" edge="1" parent="1">
          <mxGeometry width="50" height="50" relative="1" as="geometry">
            <mxPoint x="400" y="465.36082474226805" as="sourcePoint" />
            <mxPoint x="600" y="475" as="targetPoint" />
          </mxGeometry>
        </mxCell>
        <mxCell id="k7GavC4-su5i6TdgeZaQ-16" value="" style="endArrow=classic;html=1;entryX=0.008;entryY=0.695;entryDx=0;entryDy=0;entryPerimeter=0;" edge="1" parent="1" source="k7GavC4-su5i6TdgeZaQ-2" target="k7GavC4-su5i6TdgeZaQ-11">
          <mxGeometry width="50" height="50" relative="1" as="geometry">
            <mxPoint x="410" y="475.36082474226805" as="sourcePoint" />
            <mxPoint x="640" y="484.84536082474233" as="targetPoint" />
            <Array as="points">
              <mxPoint x="530" y="520" />
            </Array>
          </mxGeometry>
        </mxCell>
      </root>
    </mxGraphModel>
  </diagram>
</mxfile>
